<?xml version="1.0" ?><!-- Uploaded to: SVG Repo, www.svgrepo.com, Generator: SVG Repo Mixer Tools -->
<svg width="800px" height="800px" viewBox="0 0 128 128" data-name="Слой 1" id="Слой_1" xmlns="http://www.w3.org/2000/svg"><defs><style>.cls-1{fill:#acdffc;}.cls-2{fill:#404040;}.cls-3{fill:#9f9f9f;}</style></defs><title/><path class="cls-1" d="M100.75,86h7.92a17.24,17.24,0,0,0,1.42-34.42A19.43,19.43,0,0,0,82.78,29a33,33,0,0,0-61.22,16.8c0,.43,0,.85,0,1.27h0a19.47,19.47,0,1,0,0,38.94h5.69"/><path class="cls-2" d="M108.68,88h-7.92a2,2,0,0,1,0-4h7.92a15.24,15.24,0,0,0,1.26-30.43A2,2,0,0,1,108.17,51,17.43,17.43,0,0,0,83.66,30.78,2,2,0,0,1,81.07,30,31,31,0,0,0,23.56,45.79c0,.4,0,.8,0,1.2a2,2,0,0,1-2,2.08h-.08A17.47,17.47,0,1,0,21.56,84h5.69a2,2,0,1,1,0,4H21.56a21.47,21.47,0,0,1-2-42.85,35,35,0,0,1,64-18.68,21.46,21.46,0,0,1,29.28,19.91,20.82,20.82,0,0,1-.3,3.53A19.23,19.23,0,0,1,108.68,88Z"/><rect class="cls-3" height="60" transform="translate(128 152) rotate(-180)" width="58.29" x="34.86" y="46"/><path class="cls-2" d="M93.14,108H34.86a2,2,0,0,1-2-2V46a2,2,0,0,1,2-2H93.14a2,2,0,0,1,2,2v60A2,2,0,0,1,93.14,108Zm-56.29-4H91.14V48H36.86Z"/><path class="cls-2" d="M44,115a2,2,0,0,1-2-2v-7a2,2,0,0,1,4,0v7A2,2,0,0,1,44,115Z"/><path class="cls-2" d="M84,115a2,2,0,0,1-2-2v-7a2,2,0,0,1,4,0v7A2,2,0,0,1,84,115Z"/><path class="cls-2" d="M93,68H35a2,2,0,0,1,0-4H93a2,2,0,0,1,0,4Z"/><path class="cls-2" d="M93,88H35a2,2,0,0,1,0-4H93a2,2,0,0,1,0,4Z"/><path class="cls-2" d="M44,74a2,2,0,1,0,2,2,2,2,0,0,0-2-2Z"/><path class="cls-2" d="M44,54a2,2,0,1,0,2,2,2,2,0,0,0-2-2Z"/><path class="cls-2" d="M44,94a2,2,0,1,0,2,2,2,2,0,0,0-2-2Z"/></svg>