<?xml version="1.0" encoding="UTF-8"?><svg id="Camada_1" xmlns="http://www.w3.org/2000/svg" viewBox="0 0 96 96"><polygon points="18.94 95.79 4.72 87.38 21.01 78.66 35.58 86.19 18.94 95.79" style="fill:#b0d7f9; opacity:.3;"/><polygon points="74.37 64.06 62.24 56.88 76.14 49.43 88.58 55.86 74.37 64.06" style="fill:#b0d7f9; opacity:.3;"/><polygon points="47.57 81.2 34.74 73.61 49.44 65.74 62.59 72.53 47.57 81.2" style="fill:#b0d7f9; opacity:.3;"/><g><polygon points="19.21 84.99 8.33 78.55 8.33 63.93 19.21 70.37 19.21 84.99" style="fill:#45aeff;"/><polygon points="19.21 70.37 8.33 63.93 20.8 57.26 31.95 63.02 19.21 70.37" style="fill:#a3cced;"/><polygon points="73.85 53.42 62.96 46.98 62.96 32.37 73.85 38.81 73.85 53.42" style="fill:#45aeff;"/><polygon points="73.85 38.81 62.96 32.37 75.43 25.69 86.59 31.45 73.85 38.81" style="fill:#a3cced;"/><polygon points="86.59 46.07 73.85 53.42 73.85 38.81 86.59 31.45 86.59 46.07" style="fill:#2992e4;"/><path d="M76.49,31.98l-3.54,2.08v-2.96c0-.63,.33-1.21,.87-1.52l.97-.57c.75-.44,1.69,.1,1.69,.97v2.01Z" style="fill:#2992e4;"/><polygon points="31.95 77.63 19.22 84.99 19.22 70.37 31.95 63.02 31.95 77.63" style="fill:#2992e4;"/><path d="M47.15,18.94v6.41c0,4.87-2.6,9.37-6.82,11.81l-13.96,8.06c-4.22,2.43-6.81,6.93-6.81,11.8v6.59" style="fill:none; stroke:#2992e4; stroke-miterlimit:10; stroke-width:.9px;"/><path d="M47.21,18.91v7.16c0,3.16,3.42,5.14,6.16,3.56l15.07-8.7c2.63-1.52,5.92,.38,5.92,3.42v7.62" style="fill:none; stroke:#2992e4; stroke-miterlimit:10; stroke-width:.9px;"/><polygon points="46.28 71.36 35.4 64.92 35.4 50.31 46.28 56.74 46.28 71.36" style="fill:#45aeff;"/><polygon points="46.28 56.74 35.4 50.31 47.87 43.63 59.02 49.39 46.28 56.74" style="fill:#a3cced;"/><polygon points="59.02 64.01 46.28 71.36 46.28 56.74 59.02 49.39 59.02 64.01" style="fill:#2992e4;"/><path d="M49.34,50l-3.54,2.08v-2.96c0-.63,.33-1.21,.87-1.52l.9-.53c.78-.46,1.77,.1,1.77,1.01v1.92Z" style="fill:#2992e4;"/><line x1="47.21" y1="47.64" x2="47.21" y2="18.91" style="fill:none; stroke:#2992e4; stroke-miterlimit:10; stroke-width:.9px;"/><path d="M52.89,4.15c0,5.02-5.17,17.21-9.55,19.73,0,0-4.08-.92-5.54-1.99-1.21-.9-1.95-2.56-1.95-4.84,0-5.02,3.54-11.13,7.92-13.66,1.73-1,3.33-1.29,4.63-.96,1.99,.5,4.48,1.72,4.48,1.72Z" style="fill:#2992e4;"/><ellipse cx="47.15" cy="13.71" rx="11.16" ry="6.44" transform="translate(11.51 47.5) rotate(-59.69)" style="fill:#2a98ee;"/><g><ellipse cx="52.96" cy="59.4" rx="2.35" ry="1.36" transform="translate(-25.04 75.14) rotate(-59.69)" style="fill:#a3cced;"/><path d="M53.48,61.67l-1.37,.79c-2.26,1.3-4.09,4.8-4.09,7.82v.08s9.55-5.52,9.55-5.52v-.08c0-3.01-1.83-4.4-4.09-3.09Z" style="fill:#a3cced;"/><ellipse cx="26.12" cy="72.95" rx="2.35" ry="1.36" transform="translate(-50.04 58.68) rotate(-59.69)" style="fill:#a3cced;"/><path d="M26.63,75.22l-1.37,.79c-2.26,1.3-4.09,4.8-4.09,7.82v.08s9.55-5.52,9.55-5.52v-.08c0-3.01-1.83-4.4-4.09-3.09Z" style="fill:#a3cced;"/><ellipse cx="80.74" cy="41.35" rx="2.35" ry="1.36" transform="translate(4.29 90.18) rotate(-59.69)" style="fill:#a3cced;"/><path d="M81.25,43.63l-1.37,.79c-2.26,1.3-4.09,4.8-4.09,7.82v.08s9.55-5.52,9.55-5.52v-.08c0-3.01-1.83-4.4-4.09-3.09Z" style="fill:#a3cced;"/><ellipse cx="47.32" cy="9.3" rx="2.35" ry="1.36" transform="translate(15.41 45.46) rotate(-59.69)" style="fill:#a3cced;"/><path d="M47.84,11.58l-1.37,.79c-2.26,1.3-4.09,4.8-4.09,7.82v.08s9.55-5.52,9.55-5.52v-.08c0-3.01-1.83-4.4-4.09-3.09Z" style="fill:#a3cced;"/></g><path d="M21.67,63.69l-3.54,2.08v-2.96c0-.63,.33-1.21,.87-1.52l1.29-.76c.61-.36,1.38,.08,1.38,.79v2.38Z" style="fill:#2992e4;"/></g></svg>