<?xml version="1.0" encoding="iso-8859-1"?>
<!-- Uploaded to: SVG Repo, www.svgrepo.com, Generator: SVG Repo Mixer Tools -->
<svg height="800px" width="800px" version="1.1" id="Layer_1" xmlns="http://www.w3.org/2000/svg" xmlns:xlink="http://www.w3.org/1999/xlink" 
	 viewBox="0 0 446.87 446.87" xml:space="preserve">
<path style="fill:#1D9AAE;" d="M400.9,100.035c6.6-2.8,17.7-47.5,11.8-45c-7.1,3-24.2,30.9-30.8,35c-1.6-3.4-4.2-6.4-7.5-8.3
	c-2.4-1.4-5-8.8-6.5-11.3c-3-4.8-6.2-9.5-9.9-13.8l-0.4-0.5l-0.5-0.4c-19.4-17.6-44.5-27.3-70.7-27.3c-19.9,0-39.2,5.5-55.7,15.9
	c-31,19.5-49.5,52.8-49.5,89.3v3.3c-29.6-8.7-54.5-23.8-72.1-43.6l-0.2-0.2l-23.3-23.3l-3.4,18.8c-3.4,18.7,2.7,40.5,18.7,66.4
	c-3.5-1.5-8.9-3.7-17.3-7c-5.1-2.1-10.5-4.2-15-6l-15.3-6.3l1.6,16.5c2.1,22,19.2,44.1,33.1,58.7l0.5,0.5l0.5,0.4
	c1.6,1.3,3.1,2.8,4.8,4.5c1.8,1.8,3.7,3.7,6,5.6l0.1,0.1c0,0,0,0.1,0.1,0.1l0.7,1.5l1.1,1.1c0.2,0.2,0.4,0.4,0.6,0.6
	c-4.6-0.6-12.2-1.4-25.1-2.7c-4.6-0.5-9.1-0.9-12.9-1.3l-16.5-1.7l6.2,15.4c2.3,5.8,5.6,10.8,10.2,15.4l0.2,0.3l0.3,0.2
	c18,15.7,45.1,28.6,66.8,39.1l5.6,2.7l0.6,0.2c0.5,0.2,1.5,0.6,2.3,1.1c1.2,0.6,2.5,1.3,4,1.8c0,0.1,0.1,0.2,0.1,0.4l2.3,6.8h1.1
	c-30,16.8-64.1,25.6-99,25.6c-6,0-12-0.3-17.9-0.8l-27.4-2.4l19.5,19.5c1.4,1.4,2.9,3,4.4,4.8c1.7,1.9,3.4,3.8,5.3,5.7l0.2,0.2
	c41.4,38.9,95.6,60.3,152.4,60.3c122,0,221.2-99.2,221.2-221.2c0-21.3-1.1-36.6-7.4-57c11.8-3.3,23.3-13.5,31.3-22.7l4.3-20.7
	C434.2,94.035,401.6,99.635,400.9,100.035z"/>
<path style="fill:#6CD3D8;" d="M384.5,123.135c0.2-0.3,0.7-0.9,1.6-1.2c11.6-2.9,29.4-17.5,37.2-26.4l-15.4,1.7
	c-3.5,2.9-6.1,3.5-6.6,3.6H401l-0.5,0.1c-0.2,0-4.1-1.6-4-1.7c19.8-21.5,11.5-40.4,11.8-43c-4.2,2.8-28.3,32.1-33.2,33.7H375
	l-0.1,0.1c-2.9,1.1-3.8-1.4-5.1-3.3c-2.2-3.1-2.2-8.5-4.4-11.7c-5.3-7.7-11.7-13.8-18.4-20.5l-0.2-0.2l-0.2-0.2
	c-18.5-16.8-42.4-26.1-67.4-26.1c-19,0-37.4,5.2-53.1,15.2c-26.3,16.6-43.8,44.6-46.7,75.6c-0.5,5-0.4,10-0.4,15c0,1.6-0.6,2-1,2.2
	c-1.4,0.9-2.2,1.1-2.5,1.1c-0.1,0-0.2,0-0.3-0.1l-0.2-0.1c-31.5-8.9-58.1-24.7-76.8-45.7l-0.1-0.1l-16.4-16.4l-1.7,9.4
	c-2.4,13.2,0.5,26.6,5.6,38.8c2.6,6.1,5.6,12,8.9,17.8c1.5,2.6,10.2,13.7,6.7,16.1c-0.5,0.3-1.2,0.6-2.1,0.6c-0.4,0-1.1-0.1-1.6-0.4
	l-0.1-0.1l-0.1-0.1c-1.8-1.2-8-3.7-22.7-9.6c-5.2-2.1-10.5-4.2-15-6.1l-7.7-3.2l0.8,8.3c2,20.6,18.4,41.7,31.8,55.8l0.2,0.2l0.3,0.2
	c1.8,1.4,3.4,3.1,5.2,4.8c2.5,2.5,17.2,14,14.6,17.3c-0.9,1.1-2,1.6-2.7,1.6c-0.2,0-0.4-0.1-0.5-0.1l-0.3-0.2l-0.3-0.1
	c-2-0.7-9.2-1.5-31.3-3.7c-4.6-0.5-9.1-0.9-13-1.3l-8.2-0.9c3.2,7.9,6.1,15.3,12.2,21.4l0.1,0.1l0.1,0.1
	c11.9,10.4,22.1,21.6,36.3,28.8c7.7,3.9,16.6,10.8,24.3,14.7c7.1,3.6,15.7,2.4,21.9,7.2c2,1.6,9.8,2.4,5.1,6.2
	c-8.2,6.7-18.3,10.7-28.2,14.3c-10.3,3.8-20.5,7.3-31.2,9.8c-26.6,6.2-52.9,5.9-80,3.5l9.7,9.7c1.5,1.5,3,3.2,4.6,5s3.3,3.7,5,5.4
	l0.1,0.1c40.5,38,93.4,59,149,59c119.2,0,212.8-96.1,212.8-215.3c0-21.5-5.3-41.8-6.5-64.1c0-0.4-0.2-0.5,0.5-2.3
	C384.3,123.435,384.4,123.335,384.5,123.135z"/>
<path style="fill:#42210B;" d="M170,126.235c1.6-36.8,20.8-69.6,52-88.8c17.6-11.2,38.4-16.8,59.2-16.8c29.6,0,57.6,11.2,78.4,32
	c7.2,7.2,13.6,16,19.2,24.8c6.4-4.8,11.2-12,16.8-18.4c4-4.8,8-10.4,12-13.6c2.4-1.6,4.8-2.4,7.2-1.6c2.4,0.8,7.2,3.2,8.8,11.2
	c1.6,8,0,20-4,31.2c7.2-1.6,14.4-3.2,16.8-4s4.8,0,7.2,0.8c2.4,1.6,3.2,3.2,3.2,6.4c0.8,6.4-4.8,37.6-39.2,51.2
	c4.8,19.2,8,39.2,8,58.4c0,125.6-102.4,227.2-227.2,227.2c-75.2,0-144.8-36.8-187.2-98.4c-1.6-2.4-1.6-6.4,0-8.8s4.8-4,8-3.2
	c41.6,8,85.6,2.4,123.2-16.8c-39.2-18.4-88.8-43.2-90.4-80c0-2.4,0.8-4,2.4-5.6s3.2-2.4,5.6-2.4c3.2,0,18.4,0.8,32.8,2.4
	c-19.2-20-42.4-50.4-36-79.2c0.8-2.4,2.4-4,4-5.6c2.4-0.8,4.8-1.6,6.4,0c0,0,13.6,5.6,26.4,10.4c-14.4-29.6-15.2-54.4-3.2-75.2
	c1.6-2.4,4-4,7.2-4s5.6,1.6,7.2,4c3.2,5.6,5.6,9.6,8.8,14.4C118,99.835,142,116.635,170,126.235z M186,136.635
	c0,2.4-0.8,4.8-3.2,6.4c-2.4,1.6-4.8,2.4-7.2,1.6c-36-9.6-66.4-29.6-87.2-56c-0.8-0.8-0.8-1.6-1.6-2.4c-3.2,18.4,3.2,40,20,66.4
	c2.4,3.2,1.6,7.2-0.8,10.4c-2.4,2.4-7.2,3.2-10.4,0.8c-2.4-1.6-23.2-9.6-36.8-15.2c2.4,23.2,26.4,50.4,49.6,70.4
	c3.2,2.4,4,6.4,1.6,10.4c-2.4,3.2-6.4,4.8-9.6,3.2c-2.4-0.8-28-3.2-43.2-4.8c10.4,24.8,54.4,46.4,85.6,60c2.4,0.8,4.8,2.4,7.2,3.2
	c3.2,0.8,4.8,4,5.6,6.4c0,3.2-0.8,6.4-3.2,8c-38.4,23.2-84,33.6-128.8,29.6c40,48,99.2,76,162.4,76c116.8,0,211.2-94.4,211.2-211.2
	c0-20.8-3.2-41.6-8.8-61.6c-0.8-2.4,0-4,0.8-6.4c0.8-1.6,3.2-3.2,4.8-4c20-5.6,28.8-17.6,32.8-26.4c-10.4,2.4-22.4,4-24,4.8
	c-4,0.8-7.2-1.6-8.8-4.8c-1.6-3.2-0.8-7.2,2.4-9.6c4.8-4,8-13.6,9.6-21.6c-7.2,8.8-16,20-28,25.6c-4,1.6-8,0.8-10.4-3.2l-0.8-2.4
	c-0.8-0.8-0.8-1.6-1.6-3.2c-4.8-9.6-10.4-17.6-17.6-24c-18.4-17.6-41.6-28-67.2-28c-17.6,0-35.2,4.8-50.4,14.4
	c-28,17.6-44.8,48-44.8,80.8c0,0.8,0,1.6,0,3.2L186,136.635z"/>
</svg>